<svg width="2560" height="4797" viewBox="0 0 2560 4797" fill="none" xmlns="http://www.w3.org/2000/svg">
<path d="M0 1194.67L170.667 1024H341.333L512 1194.67V1365.33L341.333 1536H170.667L0 1365.33V1194.67Z" fill="#151A14"/>
<path d="M2048 1194.67L2218.67 1024H2389.33L2560 1194.67V1365.33L2389.33 1536H2218.67L2048 1365.33V1194.67Z" fill="#151A14"/>
<path d="M0 682.667L170.667 512H341.333L512 682.667V853.333L341.333 1024H170.667L0 853.333V682.667Z" fill="#151A14"/>
<path d="M512 682.667L682.667 512H853.333L1024 682.667V853.333L853.333 1024H682.667L512 853.333V682.667Z" fill="#151A14"/>
<path d="M1024 682.667L1194.67 512H1365.33L1536 682.667V853.333L1365.33 1024H1194.67L1024 853.333V682.667Z" fill="#151A14"/>
<path d="M1536 682.667L1706.67 512H1877.33L2048 682.667V853.333L1877.33 1024H1706.67L1536 853.333V682.667Z" fill="#151A14"/>
<path d="M2048 682.667L2218.67 512H2389.33L2560 682.667V853.333L2389.33 1024H2218.67L2048 853.333V682.667Z" fill="#151A14"/>
<path d="M0 170.667L170.667 0H341.333L512 170.667V341.333L341.333 512H170.667L0 341.333V170.667Z" fill="#151A14"/>
<path d="M512 170.667L682.667 0H853.333L1024 170.667V341.333L853.333 512H682.667L512 341.333V170.667Z" fill="#151A14"/>
<path d="M1024 170.667L1194.67 0H1365.33L1536 170.667V341.333L1365.33 512H1194.67L1024 341.333V170.667Z" fill="#151A14"/>
<path d="M1536 170.667L1706.67 0H1877.33L2048 170.667V341.333L1877.33 512H1706.67L1536 341.333V170.667Z" fill="#151A14"/>
<path d="M2048 170.667L2218.67 0H2389.33L2560 170.667V341.333L2389.33 512H2218.67L2048 341.333V170.667Z" fill="#151A14"/>
<path d="M0 4458.67L170.667 4288H341.333L512 4458.67V4629.33L341.333 4800H170.667L0 4629.33V4458.67Z" fill="#151A14"/>
<path d="M512 4458.67L682.667 4288H853.333L1024 4458.67V4629.33L853.333 4800H682.667L512 4629.33V4458.67Z" fill="#151A14"/>
<path d="M1024 4458.67L1194.67 4288H1365.33L1536 4458.67V4629.33L1365.33 4800H1194.67L1024 4629.33V4458.67Z" fill="#151A14"/>
<path d="M1536 4458.67L1706.67 4288H1877.33L2048 4458.67V4629.33L1877.33 4800H1706.67L1536 4629.33V4458.67Z" fill="#151A14"/>
<path d="M2048 4458.67L2218.67 4288H2389.33L2560 4458.67V4629.33L2389.33 4800H2218.67L2048 4629.33V4458.67Z" fill="#151A14"/>
<path d="M0 3946.67L170.667 3776H341.333L512 3946.67V4117.33L341.333 4288H170.667L0 4117.33V3946.67Z" fill="#151A14"/>
<path d="M2048 3946.67L2218.67 3776H2389.33L2560 3946.67V4117.33L2389.33 4288H2218.67L2048 4117.33V3946.67Z" fill="#151A14"/>
<path d="M512 3946.67L682.667 3776H853.333L1024 3946.67V4117.33L853.333 4288H682.667L512 4117.33V3946.67Z" fill="#151A14"/>
<path d="M1024 3946.67L1194.67 3776H1365.33L1536 3946.67V4117.33L1365.33 4288H1194.67L1024 4117.33V3946.67Z" fill="#151A14"/>
<path d="M1536 3946.67L1706.67 3776H1877.33L2048 3946.67V4117.33L1877.33 4288H1706.67L1536 4117.33V3946.67Z" fill="#151A14"/>
</svg>
